<?xml version="1.0" standalone="no"?>
<svg width="720" height="890" viewBox="0 0 720 890" xmlns="http://www.w3.org/2000/svg">
<rect x="0" y="0" width="720" height="890" fill="#FFFDF8"/>
<text x="360.0" y="32" text-anchor="middle" font-size="20" font-weight="700" fill="#2A5A82" font-family="Verdana, Arial, sans-serif">SeatLock — Entity Relationship Diagram</text>
<rect x="60" y="60" width="230" height="140" rx="10" fill="#FFFFFF" stroke="#2A5A82" stroke-width="1.3"/>
<path d="M 60 70 A10 10 0 0 1 70 60 H 280 A10 10 0 0 1 290 70 V 90 H 60 Z" fill="#3E7CB1"/>
<text x="175.0" y="80.0" text-anchor="middle" font-size="14" font-weight="600" fill="#FFFFFF" font-family="Verdana, Arial, sans-serif">event</text>
<rect x="60" y="90" width="230" height="22" fill="#E8F1F8"/>
<text x="70" y="105.0" font-size="12" font-weight="700" text-decoration="underline" fill="#122C3F" font-family="Verdana, Arial, sans-serif">event_id  (PK)</text>
<rect x="60" y="112" width="230" height="22" fill="#F3F8FB"/>
<text x="70" y="127.0" font-size="12" font-weight="400"  fill="#122C3F" font-family="Verdana, Arial, sans-serif">name</text>
<rect x="60" y="134" width="230" height="22" fill="#E8F1F8"/>
<text x="70" y="149.0" font-size="12" font-weight="400"  fill="#122C3F" font-family="Verdana, Arial, sans-serif">event_date</text>
<rect x="60" y="156" width="230" height="22" fill="#F3F8FB"/>
<text x="70" y="171.0" font-size="12" font-weight="400"  fill="#122C3F" font-family="Verdana, Arial, sans-serif">venue</text>
<rect x="60" y="178" width="230" height="22" fill="#E8F1F8"/>
<text x="70" y="193.0" font-size="12" font-weight="400"  fill="#122C3F" font-family="Verdana, Arial, sans-serif">created_at</text>
<rect x="60" y="60" width="230" height="140" rx="10" fill="none" stroke="#2A5A82" stroke-width="1.3"/>
<line x1="60" y1="90" x2="290" y2="90" stroke="#2A5A82" stroke-width="1"/>
<rect x="60" y="260" width="230" height="162" rx="10" fill="#FFFFFF" stroke="#2A5A82" stroke-width="1.3"/>
<path d="M 60 270 A10 10 0 0 1 70 260 H 280 A10 10 0 0 1 290 270 V 290 H 60 Z" fill="#3E7CB1"/>
<text x="175.0" y="280.0" text-anchor="middle" font-size="14" font-weight="600" fill="#FFFFFF" font-family="Verdana, Arial, sans-serif">session</text>
<rect x="60" y="290" width="230" height="22" fill="#E8F1F8"/>
<text x="70" y="305.0" font-size="12" font-weight="700" text-decoration="underline" fill="#122C3F" font-family="Verdana, Arial, sans-serif">session_id  (PK)</text>
<rect x="60" y="312" width="230" height="22" fill="#F3F8FB"/>
<text x="70" y="327.0" font-size="12" font-weight="600"  fill="#122C3F" font-family="Verdana, Arial, sans-serif">event_id  (FK)</text>
<rect x="60" y="334" width="230" height="22" fill="#E8F1F8"/>
<text x="70" y="349.0" font-size="12" font-weight="400"  fill="#122C3F" font-family="Verdana, Arial, sans-serif">session_name</text>
<rect x="60" y="356" width="230" height="22" fill="#F3F8FB"/>
<text x="70" y="371.0" font-size="12" font-weight="400"  fill="#122C3F" font-family="Verdana, Arial, sans-serif">start_time</text>
<rect x="60" y="378" width="230" height="22" fill="#E8F1F8"/>
<text x="70" y="393.0" font-size="12" font-weight="400"  fill="#122C3F" font-family="Verdana, Arial, sans-serif">capacity</text>
<rect x="60" y="400" width="230" height="22" fill="#F3F8FB"/>
<text x="70" y="415.0" font-size="12" font-weight="400"  fill="#122C3F" font-family="Verdana, Arial, sans-serif">created_at</text>
<rect x="60" y="260" width="230" height="162" rx="10" fill="none" stroke="#2A5A82" stroke-width="1.3"/>
<line x1="60" y1="290" x2="290" y2="290" stroke="#2A5A82" stroke-width="1"/>
<rect x="60" y="482" width="230" height="96" rx="10" fill="#FFFFFF" stroke="#2A5A82" stroke-width="1.3"/>
<path d="M 60 492 A10 10 0 0 1 70 482 H 280 A10 10 0 0 1 290 492 V 512 H 60 Z" fill="#3E7CB1"/>
<text x="175.0" y="502.0" text-anchor="middle" font-size="14" font-weight="600" fill="#FFFFFF" font-family="Verdana, Arial, sans-serif">seat</text>
<rect x="60" y="512" width="230" height="22" fill="#E8F1F8"/>
<text x="70" y="527.0" font-size="12" font-weight="700" text-decoration="underline" fill="#122C3F" font-family="Verdana, Arial, sans-serif">seat_id  (PK)</text>
<rect x="60" y="534" width="230" height="22" fill="#F3F8FB"/>
<text x="70" y="549.0" font-size="12" font-weight="600"  fill="#122C3F" font-family="Verdana, Arial, sans-serif">session_id  (FK)</text>
<rect x="60" y="556" width="230" height="22" fill="#E8F1F8"/>
<text x="70" y="571.0" font-size="12" font-weight="400"  fill="#122C3F" font-family="Verdana, Arial, sans-serif">seat_label</text>
<rect x="60" y="482" width="230" height="96" rx="10" fill="none" stroke="#2A5A82" stroke-width="1.3"/>
<line x1="60" y1="512" x2="290" y2="512" stroke="#2A5A82" stroke-width="1"/>
<rect x="60" y="638" width="230" height="162" rx="10" fill="#FFFFFF" stroke="#2A5A82" stroke-width="1.3"/>
<path d="M 60 648 A10 10 0 0 1 70 638 H 280 A10 10 0 0 1 290 648 V 668 H 60 Z" fill="#3E7CB1"/>
<text x="175.0" y="658.0" text-anchor="middle" font-size="14" font-weight="600" fill="#FFFFFF" font-family="Verdana, Arial, sans-serif">booking</text>
<rect x="60" y="668" width="230" height="22" fill="#E8F1F8"/>
<text x="70" y="683.0" font-size="12" font-weight="700" text-decoration="underline" fill="#122C3F" font-family="Verdana, Arial, sans-serif">booking_id  (PK)</text>
<rect x="60" y="690" width="230" height="22" fill="#F3F8FB"/>
<text x="70" y="705.0" font-size="12" font-weight="600"  fill="#122C3F" font-family="Verdana, Arial, sans-serif">seat_id  (FK)</text>
<rect x="60" y="712" width="230" height="22" fill="#E8F1F8"/>
<text x="70" y="727.0" font-size="12" font-weight="600"  fill="#122C3F" font-family="Verdana, Arial, sans-serif">user_id  (FK)</text>
<rect x="60" y="734" width="230" height="22" fill="#F3F8FB"/>
<text x="70" y="749.0" font-size="12" font-weight="400"  fill="#122C3F" font-family="Verdana, Arial, sans-serif">status</text>
<rect x="60" y="756" width="230" height="22" fill="#E8F1F8"/>
<text x="70" y="771.0" font-size="12" font-weight="400"  fill="#122C3F" font-family="Verdana, Arial, sans-serif">booked_at</text>
<rect x="60" y="778" width="230" height="22" fill="#F3F8FB"/>
<text x="70" y="793.0" font-size="12" font-weight="400"  fill="#122C3F" font-family="Verdana, Arial, sans-serif">cancelled_at</text>
<rect x="60" y="638" width="230" height="162" rx="10" fill="none" stroke="#2A5A82" stroke-width="1.3"/>
<line x1="60" y1="668" x2="290" y2="668" stroke="#2A5A82" stroke-width="1"/>
<rect x="420" y="638" width="230" height="118" rx="10" fill="#FFFFFF" stroke="#82412A" stroke-width="1.3"/>
<path d="M 420 648 A10 10 0 0 1 430 638 H 640 A10 10 0 0 1 650 648 V 668 H 420 Z" fill="#B15E3E"/>
<text x="535.0" y="658.0" text-anchor="middle" font-size="14" font-weight="600" fill="#FFFFFF" font-family="Verdana, Arial, sans-serif">app_user</text>
<rect x="420" y="668" width="230" height="22" fill="#F8EDE8"/>
<text x="430" y="683.0" font-size="12" font-weight="700" text-decoration="underline" fill="#3F1D12" font-family="Verdana, Arial, sans-serif">user_id  (PK)</text>
<rect x="420" y="690" width="230" height="22" fill="#FBF5F2"/>
<text x="430" y="705.0" font-size="12" font-weight="400"  fill="#3F1D12" font-family="Verdana, Arial, sans-serif">name</text>
<rect x="420" y="712" width="230" height="22" fill="#F8EDE8"/>
<text x="430" y="727.0" font-size="12" font-weight="400"  fill="#3F1D12" font-family="Verdana, Arial, sans-serif">email</text>
<rect x="420" y="734" width="230" height="22" fill="#FBF5F2"/>
<text x="430" y="749.0" font-size="12" font-weight="400"  fill="#3F1D12" font-family="Verdana, Arial, sans-serif">created_at</text>
<rect x="420" y="638" width="230" height="118" rx="10" fill="none" stroke="#82412A" stroke-width="1.3"/>
<line x1="420" y1="668" x2="650" y2="668" stroke="#82412A" stroke-width="1"/>
<path d="M 60 101.0 L 30 101.0 L 30 323.0 L 60 323.0" fill="none" stroke="#2A5A82" stroke-width="2"/>
<rect x="36.0" y="92.0" width="16" height="18" rx="9" fill="#FFFDF8" stroke="#2A5A82" stroke-width="1"/><text x="44" y="105.0" text-anchor="middle" font-size="11" font-weight="700" fill="#2A5A82" font-family="Verdana, Arial, sans-serif">1</text>
<rect x="36.0" y="314.0" width="16" height="18" rx="9" fill="#FFFDF8" stroke="#2A5A82" stroke-width="1"/><text x="44" y="327.0" text-anchor="middle" font-size="11" font-weight="700" fill="#2A5A82" font-family="Verdana, Arial, sans-serif">N</text>
<path d="M 60 301.0 L 20 301.0 L 20 545.0 L 60 545.0" fill="none" stroke="#2A5A82" stroke-width="2"/>
<rect x="36.0" y="292.0" width="16" height="18" rx="9" fill="#FFFDF8" stroke="#2A5A82" stroke-width="1"/><text x="44" y="305.0" text-anchor="middle" font-size="11" font-weight="700" fill="#2A5A82" font-family="Verdana, Arial, sans-serif">1</text>
<rect x="36.0" y="536.0" width="16" height="18" rx="9" fill="#FFFDF8" stroke="#2A5A82" stroke-width="1"/><text x="44" y="549.0" text-anchor="middle" font-size="11" font-weight="700" fill="#2A5A82" font-family="Verdana, Arial, sans-serif">N</text>
<path d="M 60 523.0 L 10 523.0 L 10 701.0 L 60 701.0" fill="none" stroke="#2A5A82" stroke-width="2"/>
<rect x="36.0" y="514.0" width="16" height="18" rx="9" fill="#FFFDF8" stroke="#2A5A82" stroke-width="1"/><text x="44" y="527.0" text-anchor="middle" font-size="11" font-weight="700" fill="#2A5A82" font-family="Verdana, Arial, sans-serif">1</text>
<rect x="36.0" y="692.0" width="16" height="18" rx="9" fill="#FFFDF8" stroke="#2A5A82" stroke-width="1"/><text x="44" y="705.0" text-anchor="middle" font-size="11" font-weight="700" fill="#2A5A82" font-family="Verdana, Arial, sans-serif">N</text>
<path d="M 420 679.0 L 350 679.0 L 350 723.0 L 290 723.0" fill="none" stroke="#82412A" stroke-width="2"/>
<rect x="396.0" y="670.0" width="16" height="18" rx="9" fill="#FFFDF8" stroke="#82412A" stroke-width="1"/><text x="404" y="683.0" text-anchor="middle" font-size="11" font-weight="700" fill="#82412A" font-family="Verdana, Arial, sans-serif">1</text>
<rect x="298.0" y="714.0" width="16" height="18" rx="9" fill="#FFFDF8" stroke="#82412A" stroke-width="1"/><text x="306" y="727.0" text-anchor="middle" font-size="11" font-weight="700" fill="#82412A" font-family="Verdana, Arial, sans-serif">N</text>
<rect x="30" y="820" width="660" height="40" rx="10" fill="#F5F3EC" stroke="#D3D1C7" stroke-width="1"/>
<circle cx="50" cy="834" r="5" fill="#3E7CB1"/><text x="63" y="838" font-size="11" fill="#2C2C2A" font-family="Verdana, Arial, sans-serif">Booking flow</text>
<circle cx="180" cy="834" r="5" fill="#B15E3E"/><text x="193" y="838" font-size="11" fill="#2C2C2A" font-family="Verdana, Arial, sans-serif">User</text>
<text x="50" y="852" font-size="10" fill="#5F5E5A" font-family="Verdana, Arial, sans-serif">PK = underlined bold | FK = bold, tagged (FK) | "1"/"N" = cardinality, each line touches its exact row</text>
</svg>